<svg width="26" height="24" viewBox="0 0 26 24" fill="none" xmlns="http://www.w3.org/2000/svg">
<path d="M3.19869 11H5.23529C6.39184 11 7.32941 11.8954 7.32941 13V14C7.32941 15.1046 8.26698 16 9.42353 16C10.5801 16 11.5176 16.8954 11.5176 18V20.9451M8.37647 3.93552V5.5C8.37647 6.88071 9.54843 8 10.9941 8H11.5176C12.6742 8 13.6118 8.89543 13.6118 10C13.6118 11.1046 14.5493 12 15.7059 12C16.8624 12 17.8 11.1046 17.8 10C17.8 8.89543 18.7376 8 19.8941 8L21.0087 8M15.7059 20.4879V18C15.7059 16.8954 16.6434 16 17.8 16H21.0087M21.9882 12C21.9882 16.9706 17.7692 21 12.5647 21C7.36023 21 3.14117 16.9706 3.14117 12C3.14117 7.02944 7.36023 3 12.5647 3C17.7692 3 21.9882 7.02944 21.9882 12Z" stroke="#5D5E5F" stroke-linecap="round" stroke-linejoin="round"/>
</svg>
