<svg width="217" height="130" viewBox="0 0 217 130" fill="none" xmlns="http://www.w3.org/2000/svg">
<rect width="217" height="130" rx="8" fill="url(#paint0_linear_518_254)"/>
<path d="M41.7329 78.9461C42.0289 78.8342 42.3584 78.9872 42.4686 79.2876C42.5788 79.5881 42.4281 79.9225 42.1322 80.0344C41.1475 80.4078 40.1209 80.6956 39.0617 80.8889C38.0203 81.079 36.9559 81.1783 35.8778 81.1783C30.9411 81.1783 26.4716 79.1471 23.2364 75.8634C20.0012 72.5796 18 68.043 18 63.0323C18 62.7105 18.2572 62.4495 18.5742 62.4495C18.8913 62.4495 19.1485 62.7105 19.1485 63.0323C19.1485 67.7214 21.0211 71.9667 24.0482 75.0393C27.0755 78.1119 31.258 80.0125 35.8778 80.0125C36.904 80.0125 37.9006 79.9211 38.8598 79.746C39.85 79.5653 40.8106 79.2958 41.7329 78.9461ZM35.8778 78.0168C36.1948 78.0168 36.452 78.2779 36.452 78.5997C36.452 78.9215 36.1948 79.1825 35.8778 79.1825C34.4657 79.1825 33.093 78.9943 31.7835 78.6412C30.4314 78.2767 29.1521 77.7376 27.9711 77.0499C27.6962 76.8902 27.6008 76.5344 27.7581 76.2554C27.9153 75.9763 28.2659 75.8795 28.5408 76.0391C29.6404 76.6794 30.8265 77.18 32.075 77.5166C33.285 77.8429 34.5597 78.0168 35.8778 78.0168ZM23.8138 71.6736C23.9959 71.9363 23.9336 72.2992 23.6748 72.484C23.4159 72.6688 23.0583 72.6056 22.8763 72.3428C21.9436 71.0035 21.2066 69.5144 20.7081 67.9189C20.2262 66.3768 19.9662 64.7348 19.9662 63.0323C19.9662 60.1099 20.7317 57.368 22.0702 55.0021L22.0969 54.9592C23.4833 52.5259 25.4746 50.4947 27.8604 49.0795C28.1341 48.9174 28.4857 49.0111 28.6455 49.289C28.8052 49.5668 28.7128 49.9236 28.4391 50.0858C26.22 51.4021 24.3707 53.2867 23.0863 55.541L23.066 55.5803C21.8247 57.7746 21.1147 60.3189 21.1147 63.0323C21.1147 64.6141 21.3558 66.1381 21.8027 67.5683C22.2659 69.0505 22.9494 70.4323 23.8138 71.6736ZM29.6023 74.1989C29.8771 74.3586 29.9725 74.7144 29.8153 74.9934C29.658 75.2725 29.3074 75.3693 29.0325 75.2097C26.9167 73.9819 25.151 72.2008 23.9266 70.06C22.7439 67.9924 22.0666 65.5916 22.0666 63.0323C22.0666 59.1615 23.6126 55.6568 26.1119 53.12C28.6112 50.5832 32.0641 49.014 35.8778 49.014C36.7053 49.014 37.5247 49.0903 38.3283 49.2364C39.1435 49.3846 39.934 49.6055 40.6925 49.8919C40.9885 50.0036 41.1391 50.3381 41.0289 50.6386C40.9187 50.939 40.5892 51.0919 40.2932 50.9801C39.598 50.7175 38.8734 50.5151 38.1265 50.3794C37.4052 50.2482 36.6538 50.1797 35.8778 50.1797C32.3809 50.1797 29.2151 51.6184 26.9238 53.944C24.6325 56.2697 23.2151 59.483 23.2151 63.0323C23.2151 65.3827 23.8351 67.5842 24.918 69.4771C26.0399 71.4385 27.6597 73.0718 29.6023 74.1989ZM25.4875 61.0834C25.4305 61.399 25.1322 61.6079 24.8213 61.5502C24.5104 61.4923 24.3045 61.1895 24.3615 60.8739C24.8658 58.0846 26.3301 55.6353 28.3938 53.8926C30.4249 52.1774 33.034 51.1458 35.8778 51.1458C36.9761 51.1458 38.0423 51.3007 39.0554 51.5899C40.0998 51.8882 41.0852 52.3299 41.9893 52.8926C42.2594 53.0598 42.3447 53.4176 42.18 53.6917C42.0152 53.9658 41.6627 54.0524 41.3926 53.8852C40.577 53.3777 39.6881 52.9792 38.7458 52.71C37.8367 52.4504 36.8747 52.3115 35.8778 52.3115C33.3078 52.3115 30.9539 53.2406 29.125 54.7851C27.2635 56.3571 25.9425 58.5666 25.4875 61.0834ZM42.4344 71.4415C42.6822 71.2429 43.0417 71.2857 43.2375 71.5371C43.4332 71.7885 43.391 72.1535 43.1433 72.3521C42.1263 73.1701 40.9733 73.8199 39.7253 74.2605C38.5166 74.687 37.2217 74.919 35.8778 74.919C33.0802 74.919 30.5103 73.9212 28.4944 72.2569C26.4428 70.5631 24.9667 68.177 24.4111 65.4486C24.348 65.1343 24.5478 64.8274 24.8574 64.7633C25.1671 64.6992 25.4694 64.902 25.5326 65.2163C26.0332 67.6751 27.3651 69.8268 29.2166 71.3554C31.0325 72.8546 33.3509 73.7532 35.8778 73.7532C37.0976 73.7532 38.2653 73.5454 39.3485 73.1631C40.4772 72.7648 41.5182 72.1784 42.4344 71.4415ZM33.3118 54.8857C33.0109 54.9824 32.6894 54.8133 32.5941 54.5078C32.4988 54.2023 32.6655 53.876 32.9664 53.7793C33.4307 53.6289 33.9102 53.5134 34.4013 53.4362C34.8923 53.359 35.3858 53.3188 35.8778 53.3188C37.1197 53.3188 38.3107 53.5616 39.4065 54.0032C40.5421 54.4608 41.5697 55.131 42.4408 55.9647C42.6712 56.1847 42.6822 56.5527 42.4655 56.7865C42.2487 57.0204 41.8861 57.0316 41.6557 56.8115C40.886 56.0748 39.9814 55.4838 38.9848 55.0823C38.0276 54.6966 36.9793 54.4845 35.8778 54.4845C35.4251 54.4845 34.9906 54.5185 34.5763 54.5835C34.1426 54.6518 33.72 54.7535 33.3118 54.8857ZM40.5231 70.165C40.7869 69.9877 41.1425 70.0612 41.3171 70.3289C41.4917 70.5966 41.4194 70.9575 41.1556 71.1348C40.6413 71.4807 40.0897 71.7782 39.5078 72.0205C38.9343 72.2593 38.3372 72.4429 37.7238 72.5646C37.4129 72.6262 37.1116 72.4202 37.0509 72.1047C36.9903 71.7891 37.1932 71.4833 37.5041 71.4217C38.0518 71.3131 38.5766 71.1525 39.0727 70.9459C39.5813 70.7343 40.0668 70.4718 40.5231 70.165ZM34.696 71.4982C35.0094 71.5421 35.2282 71.8358 35.1849 72.1539C35.1416 72.472 34.8523 72.6941 34.5389 72.6502C32.1978 72.3171 30.1281 71.1242 28.65 69.3964C27.191 67.6909 26.3078 65.4654 26.3078 63.0323C26.3078 61.5331 26.645 60.1096 27.247 58.8365C27.8715 57.5155 28.7799 56.3612 29.8911 55.4557C30.1376 55.2546 30.4982 55.2943 30.6964 55.5445C30.8945 55.7947 30.8554 56.1607 30.6089 56.3619C29.6278 57.1613 28.8272 58.1775 28.2788 59.3374C27.7516 60.4523 27.4563 61.7055 27.4563 63.0323C27.4563 65.177 28.2329 67.1364 29.5157 68.6359C30.816 70.1558 32.6366 71.2052 34.696 71.4982Z" fill="#5FEDD5"/>
<path fill-rule="evenodd" clip-rule="evenodd" d="M57.0518 75.3544C57.0518 78.471 54.5628 80.9974 51.4923 80.9974C48.4218 80.9974 45.9328 78.471 45.9328 75.3544C45.9328 75.3544 46.0407 71.3153 43.5903 69.9372C40.579 68.0878 38.5094 69.5256 35.8647 69.5256C32.8999 69.5085 29.5431 66.653 29.5431 63.1092C29.5431 59.5655 32.3733 56.6928 35.8647 56.6928C37.4065 56.5412 38.8508 57.3369 38.8508 57.3369C38.8508 57.3369 41.4358 59.0555 43.7577 57.4679C46.0796 55.8802 46.0007 53.0558 46.0007 53.0558C46.0007 50.6064 47.9151 49.2368 50.3283 49.2368C52.7416 49.2368 54.6979 51.2224 54.6979 53.6718C54.6979 56.1213 52.7416 58.1069 50.3283 58.1069C50.3283 58.1069 47.493 57.2715 44.7448 58.7448C41.9965 60.218 42.1481 62.9291 42.1481 62.9291C42.1481 62.9291 41.958 66.7244 44.8288 68.3928C46.611 69.9307 48.8308 69.6735 51.4923 69.6082C53.874 69.659 57.0518 72.2379 57.0518 75.3544Z" fill="#6496FF"/>
<path d="M66.4454 59.0073V49.0275H74.3112C74.8484 49.0275 75.3103 49.2216 75.6973 49.6097C76.0842 49.9978 76.2777 50.4691 76.2777 51.0235V57.0113C76.2777 57.5658 76.0842 58.037 75.6973 58.4251C75.3103 58.8133 74.8484 59.0073 74.3112 59.0073H66.4454ZM68.8625 57.0113H73.8333C74.1064 57.0113 74.252 57.0021 74.2702 56.9836C74.2884 56.9651 74.2976 56.8173 74.2976 56.54V51.4947C74.2976 51.2175 74.2884 51.0697 74.2702 51.0512C74.252 51.0327 74.1064 51.0235 73.8333 51.0235H68.8625C68.5894 51.0235 68.446 51.0327 68.4323 51.0512C68.4186 51.0697 68.4119 51.2175 68.4119 51.4947V56.54C68.4119 56.8173 68.4186 56.9651 68.4323 56.9836C68.446 57.0021 68.5894 57.0113 68.8625 57.0113ZM77.7525 59.0073V49.0275H79.6916V59.0073H77.7525ZM82.6959 59.0073C82.1497 59.0073 81.6854 58.8133 81.3031 58.4251C80.9207 58.037 80.7295 57.5658 80.7295 57.0113V51.0235C80.7295 50.4691 80.9207 49.9978 81.3031 49.6097C81.6854 49.2216 82.1497 49.0275 82.6959 49.0275H88.5953C89.1324 49.0275 89.5945 49.2216 89.9814 49.6097C90.3683 49.9978 90.5618 50.4691 90.5618 51.0235V51.8828H88.5816V51.4947C88.5816 51.2175 88.5726 51.0697 88.5543 51.0512C88.5361 51.0327 88.3905 51.0235 88.1174 51.0235H83.1466C82.8735 51.0235 82.7301 51.0327 82.7165 51.0512C82.7028 51.0697 82.6959 51.2175 82.6959 51.4947V56.54C82.6959 56.8173 82.7028 56.9651 82.7165 56.9836C82.7301 57.0021 82.8735 57.0113 83.1466 57.0113H88.1174C88.3905 57.0113 88.5361 57.0021 88.5543 56.9836C88.5726 56.9651 88.5816 56.8173 88.5816 56.54V55.2787H86.3967V53.2689H90.5618V57.0113C90.5618 57.5658 90.3683 58.037 89.9814 58.4251C89.5945 58.8133 89.1324 59.0073 88.5953 59.0073H82.6959ZM92.0093 59.0073V49.0275H93.9484V59.0073H92.0093ZM98.6597 59.0073V51.0235H94.7268V49.0275H104.559V51.0235H100.626V59.0073H98.6597ZM105.611 59.0073V51.0235C105.611 50.4691 105.802 49.9978 106.184 49.6097C106.566 49.2216 107.031 49.0275 107.577 49.0275H113.476C114.014 49.0275 114.476 49.2216 114.862 49.6097C115.249 49.9978 115.443 50.4691 115.443 51.0235V59.0073H113.463V55.7223H107.577V59.0073H105.611ZM107.577 53.7263H113.463V51.4947C113.463 51.2175 113.454 51.0697 113.435 51.0512C113.417 51.0327 113.272 51.0235 112.998 51.0235H108.028C107.755 51.0235 107.611 51.0327 107.598 51.0512C107.584 51.0697 107.577 51.2175 107.577 51.4947V53.7263ZM117.013 59.0073V49.0137H118.98V57.0113H126.846V59.0073H117.013ZM131.967 59.0073V49.0275H141.034V51.0235H133.947V53.0194H139.655V55.0153H133.947V59.0073H131.967ZM141.758 59.0073V49.0275H143.697V59.0073H141.758ZM144.735 59.0073V49.0275H146.811L152.587 55.9995V49.0275H154.567V59.0073H152.491L146.701 52.0076V59.0073H144.735ZM158.063 59.0073C157.517 59.0073 157.053 58.8133 156.67 58.4251C156.288 58.037 156.097 57.5658 156.097 57.0113V51.0235C156.097 50.4691 156.288 49.9978 156.67 49.6097C157.053 49.2216 157.517 49.0275 158.063 49.0275H163.962C164.5 49.0275 164.962 49.2216 165.349 49.6097C165.735 49.9978 165.929 50.4691 165.929 51.0235V51.8828H163.949V51.4947C163.949 51.2175 163.94 51.0697 163.921 51.0512C163.903 51.0327 163.758 51.0235 163.484 51.0235H158.514C158.241 51.0235 158.097 51.0327 158.084 51.0512C158.07 51.0697 158.063 51.2175 158.063 51.4947V56.54C158.063 56.8173 158.07 56.9651 158.084 56.9836C158.097 57.0021 158.241 57.0113 158.514 57.0113H163.484C163.758 57.0113 163.903 57.0021 163.921 56.9836C163.94 56.9651 163.949 56.8173 163.949 56.54V55.2787H161.764V53.2689H165.929V57.0113C165.929 57.5658 165.735 58.037 165.349 58.4251C164.962 58.8133 164.5 59.0073 163.962 59.0073H158.063ZM167.458 59.0073V49.0275H176.526V51.0235H169.438V53.0194H175.147V55.0153H169.438V57.0113H176.526V59.0073H167.458ZM177.878 59.0073V49.0414H185.744C186.281 49.0414 186.743 49.2378 187.13 49.6305C187.517 50.0232 187.71 50.4922 187.71 51.0373V53.6709C187.71 54.2068 187.517 54.6712 187.13 55.0639C186.743 55.4566 186.281 55.653 185.744 55.653H185.43L187.696 58.3836V59.0073H185.634L182.862 55.653L179.844 55.6668V59.0073H177.878ZM180.295 53.657H185.266C185.539 53.657 185.684 53.6478 185.703 53.6293C185.721 53.6108 185.73 53.463 185.73 53.1857V51.4947C185.73 51.2175 185.721 51.072 185.703 51.0582C185.684 51.0443 185.539 51.0373 185.266 51.0373H180.295C180.022 51.0373 179.878 51.0443 179.865 51.0582C179.851 51.072 179.844 51.2175 179.844 51.4947V53.1857C179.844 53.463 179.851 53.6108 179.865 53.6293C179.878 53.6478 180.022 53.657 180.295 53.657ZM191.083 59.0073C190.546 59.0073 190.086 58.8133 189.704 58.4251C189.321 58.037 189.13 57.5658 189.13 57.0113V56.1658H191.083V56.54C191.083 56.8173 191.092 56.9651 191.11 56.9836C191.129 57.0021 191.274 57.0113 191.547 57.0113H196.504C196.787 57.0113 196.935 57.0021 196.948 56.9836C196.962 56.9651 196.969 56.8173 196.969 56.54V55.4867C196.969 55.2095 196.962 55.0616 196.948 55.0432C196.935 55.0246 196.787 55.0153 196.504 55.0153H191.083C190.546 55.0153 190.086 54.8213 189.704 54.4332C189.321 54.0452 189.13 53.5785 189.13 53.0333V51.0235C189.13 50.4691 189.321 49.9978 189.704 49.6097C190.086 49.2216 190.546 49.0275 191.083 49.0275H196.996C197.524 49.0275 197.984 49.2216 198.375 49.6097C198.767 49.9978 198.962 50.4691 198.962 51.0235V51.869H196.969V51.4947C196.969 51.2175 196.962 51.0697 196.948 51.0512C196.935 51.0327 196.787 51.0235 196.504 51.0235H191.547C191.274 51.0235 191.129 51.0327 191.11 51.0512C191.092 51.0697 191.083 51.2175 191.083 51.4947V52.5482C191.083 52.8254 191.092 52.9733 191.11 52.9917C191.129 53.0102 191.274 53.0194 191.547 53.0194H196.996C197.524 53.0194 197.984 53.2135 198.375 53.6016C198.767 53.9897 198.962 54.4563 198.962 55.0016V57.0113C198.962 57.5658 198.767 58.037 198.375 58.4251C197.984 58.8133 197.524 59.0073 196.996 59.0073H191.083Z" fill="#6496FF"/>
<path d="M66.4456 81.1781V67.0073C66.4456 66.22 66.717 65.5508 67.2599 64.9997C67.8029 64.4487 68.4622 64.1731 69.2378 64.1731H80.407C81.1826 64.1731 81.8419 64.4487 82.3849 64.9997C82.9278 65.5509 83.1992 66.2201 83.1992 67.0073V81.1781H81.3145V74.9665H68.3303V81.1781H66.4456ZM68.3303 73.0534H81.3145V67.0073C81.3145 66.7553 81.2252 66.5388 81.0469 66.3578C80.8685 66.1768 80.6551 66.0862 80.407 66.0862H69.2378C68.9898 66.0862 68.7764 66.1768 68.5979 66.3578C68.4196 66.5388 68.3303 66.7554 68.3303 67.0073V73.0534ZM88.6442 81.1781C87.8687 81.1781 87.2093 80.9025 86.6663 80.3515C86.1234 79.8004 85.8519 79.1312 85.8519 78.344V67.0073C85.8519 66.22 86.1234 65.5509 86.6663 64.9997C87.2093 64.4487 87.8686 64.1731 88.6442 64.1731H102.559V66.0862H88.6442C88.396 66.0862 88.1827 66.1768 88.0043 66.3578C87.8259 66.5388 87.7367 66.7554 87.7367 67.0073V78.344C87.7367 78.5958 87.8259 78.8123 88.0043 78.9934C88.1827 79.1745 88.396 79.265 88.6442 79.265H102.559V81.1781H88.6442ZM105.026 81.1781V67.0073C105.026 66.22 105.297 65.5508 105.84 64.9997C106.383 64.4487 107.042 64.1731 107.818 64.1731H118.987C119.763 64.1731 120.422 64.4487 120.965 64.9997C121.508 65.5509 121.779 66.2201 121.779 67.0073V81.1781H119.895V74.9665H106.91V81.1781H105.026ZM106.91 73.0534H119.895V67.0073C119.895 66.7553 119.805 66.5388 119.627 66.3578C119.449 66.1768 119.235 66.0862 118.987 66.0862H107.818C107.57 66.0862 107.356 66.1768 107.178 66.3578C107 66.5388 106.91 66.7554 106.91 67.0073V73.0534ZM124.478 81.1781V64.1731H138.44C139.216 64.1731 139.875 64.4487 140.418 64.9997C140.961 65.5509 141.232 66.2201 141.232 67.0073V78.344C141.232 79.1312 140.961 79.8004 140.418 80.3515C139.875 80.9025 139.215 81.1781 138.44 81.1781H124.478ZM127.271 79.265H138.44C138.688 79.265 138.901 79.1745 139.08 78.9934C139.258 78.8123 139.347 78.5959 139.347 78.344V67.0073C139.347 66.7553 139.258 66.5388 139.08 66.3578C138.901 66.1768 138.688 66.0862 138.44 66.0862H127.271C127.023 66.0862 126.809 66.1768 126.631 66.3578C126.453 66.5388 126.363 66.7554 126.363 67.0073V78.344C126.363 78.5958 126.452 78.8123 126.631 78.9934C126.809 79.1745 127.023 79.265 127.271 79.265ZM143.885 81.1781V64.1731H159.173V66.0862H145.77V71.7072H156.543V73.644H145.77V79.265H159.173V81.1781H143.885ZM160.988 81.1781V64.1731H163.57L170.528 72.5812L177.485 64.1731H180.068V81.1781H178.183V66.3459L170.528 75.5806L162.872 66.3459V81.1781H160.988ZM189.376 81.1781V74.7776L181.674 64.1731H183.838L190.33 72.4867L196.752 64.1731H198.963L191.261 74.7776V81.1781H189.376Z" fill="#5FEDD5"/>
<defs>
<linearGradient id="paint0_linear_518_254" x1="108.5" y1="39.975" x2="108.5" y2="799.825" gradientUnits="userSpaceOnUse">
<stop stop-color="#252527"/>
<stop offset="1" stop-color="#0186EF" stop-opacity="0"/>
</linearGradient>
</defs>
</svg>
