<svg width="196" height="195" viewBox="0 0 196 195" fill="none" xmlns="http://www.w3.org/2000/svg">
<rect x="2" y="2" width="192" height="191" stroke="url(#paint0_linear_518_779)" stroke-width="4"/>
<g clip-path="url(#clip0_518_779)">
<path d="M137.333 73.4167H117.667V63.5833L107.833 53.75H88.1666L78.3333 63.5833V73.4167H58.6666C53.2583 73.4167 48.8333 77.8417 48.8333 83.25V107.833C48.8333 111.521 50.8 114.618 53.75 116.339V132.417C53.75 137.874 58.1258 142.25 63.5833 142.25H132.417C137.874 142.25 142.25 137.874 142.25 132.417V116.29C145.151 114.569 147.167 111.422 147.167 107.833V83.25C147.167 77.8417 142.742 73.4167 137.333 73.4167ZM88.1666 63.5833H107.833V73.4167H88.1666V63.5833ZM58.6666 83.25H137.333V107.833H112.75V93.0833H83.25V107.833H58.6666V83.25ZM102.917 112.75H93.0833V102.917H102.917V112.75ZM132.417 132.417H63.5833V117.667H83.25V122.583H112.75V117.667H132.417V132.417Z" fill="#0186EF"/>
</g>
<defs>
<linearGradient id="paint0_linear_518_779" x1="98" y1="0" x2="98" y2="183.5" gradientUnits="userSpaceOnUse">
<stop stop-color="#0186EF"/>
<stop offset="1" stop-color="#141415"/>
</linearGradient>
<clipPath id="clip0_518_779">
<rect width="118" height="118" fill="white" transform="translate(39 39)"/>
</clipPath>
</defs>
</svg>
