<svg width="217" height="130" viewBox="0 0 217 130" fill="none" xmlns="http://www.w3.org/2000/svg">
<rect width="217" height="130" rx="8" fill="url(#paint0_linear_518_252)"/>
<path d="M41.96 67.96H56.68V75H33.64V52.6H41.96V67.96ZM57.64 49.4H65.32V54.52H57.64V49.4ZM57.64 55.8H65.32V75H57.64V55.8ZM80.7848 54.04C78.9288 54.04 78.1288 54.584 77.9048 55.8H84.7208V62.2H77.8408V75H70.1608V62.2H66.2888V55.8H70.1608V54.744C70.1608 50.904 72.4648 49.08 79.0568 49.08C80.9448 49.08 81.9368 49.08 84.7208 49.4V54.2C83.4728 54.104 82.1928 54.04 80.7848 54.04ZM97.7748 69.24C100.559 69.24 101.679 69.048 103.247 67.8H110.767C109.807 72.888 105.679 75.32 97.7748 75.32C90.2548 75.32 85.0388 72.504 85.0388 65.4C85.0388 58.296 90.2548 55.48 98.0948 55.48C105.999 55.48 111.087 58.296 111.087 66.68H92.8788C93.5188 68.728 95.6628 69.24 97.7748 69.24ZM98.0628 60.92C96.0148 60.92 94.0948 61.112 93.2308 62.84H102.895C102.031 61.112 100.111 60.92 98.0628 60.92ZM112.046 49.4H119.726V75H112.046V49.4ZM121.015 49.4H128.695V54.52H121.015V49.4ZM121.015 55.8H128.695V75H121.015V55.8ZM146.944 55.48C151.264 55.48 156.16 56.824 156.16 63.768V75H148.48V66.904C148.48 63.608 147.296 62.2 143.84 62.2C141.568 62.2 139.168 63.192 137.664 64.632V75H129.984V55.8H137.664V58.36C139.968 56.76 142.912 55.48 146.944 55.48ZM169.556 69.24C172.34 69.24 173.46 69.048 175.028 67.8H182.548C181.588 72.888 177.46 75.32 169.556 75.32C162.036 75.32 156.82 72.504 156.82 65.4C156.82 58.296 162.036 55.48 169.876 55.48C177.78 55.48 182.868 58.296 182.868 66.68H164.66C165.3 68.728 167.444 69.24 169.556 69.24ZM169.844 60.92C167.796 60.92 165.876 61.112 165.012 62.84H174.676C173.812 61.112 171.892 60.92 169.844 60.92Z" fill="white"/>
<defs>
<linearGradient id="paint0_linear_518_252" x1="108.5" y1="39.975" x2="108.5" y2="799.825" gradientUnits="userSpaceOnUse">
<stop stop-color="#252527"/>
<stop offset="1" stop-color="#0186EF" stop-opacity="0"/>
</linearGradient>
</defs>
</svg>
