<svg width="141" height="40" viewBox="0 0 141 40" fill="none" xmlns="http://www.w3.org/2000/svg">
<g clip-path="url(#clip0_518_476)">
<path d="M50.402 5.91782C50.462 6.14482 50.4912 6.50451 50.4912 6.99689C50.4912 7.47008 50.462 7.82018 50.402 8.04719C50.2219 8.7282 49.8067 9.17102 49.1563 9.37884C48.8254 9.48755 48.4005 9.5419 47.8815 9.5419C47.3511 9.5419 46.9213 9.48755 46.5904 9.37884C46.3001 9.27973 46.0422 9.11826 45.8167 8.89126C45.5913 8.66425 45.4388 8.3829 45.3593 8.04878C45.2896 7.78181 45.2539 7.43331 45.2539 6.99849C45.2539 6.54448 45.2896 6.18479 45.3593 5.91942C45.4388 5.5933 45.5913 5.31833 45.8167 5.09133C46.0422 4.86432 46.2984 4.69647 46.5904 4.58776C46.8905 4.48865 47.3203 4.43909 47.8815 4.43909C48.4313 4.43909 48.8563 4.48865 49.1563 4.58776C49.8165 4.81477 50.2317 5.25758 50.402 5.91782ZM50.1165 27.2147H45.6302V11.5674H50.1165V27.2147Z" fill="#0086EE"/>
<path d="M69.4261 20.013H60.7227L62.8378 15.8726H68.0296C68.4903 15.8726 68.8941 15.831 69.2445 15.7463C69.5948 15.6631 69.9224 15.5225 70.2274 15.3242C70.5323 15.1276 70.7642 14.8367 70.9248 14.4514C71.0854 14.0677 71.1648 13.5929 71.1648 13.0318C71.1648 11.9767 70.8924 11.2334 70.3474 10.7985C69.8024 10.3653 69.0287 10.1479 68.0296 10.1479H59.5517V27.2148H55.0508V6.00745H69.4261C71.3465 6.00745 72.8371 6.5254 73.8978 7.55971C74.9586 8.59562 75.5376 9.93047 75.6382 11.5675C75.6479 11.7449 75.6528 12.549 75.6528 13.9782C75.6528 15.1116 75.4322 16.1251 74.9927 17.0172C74.5531 17.9092 73.854 18.6318 72.8987 19.1833C71.945 19.7364 70.7869 20.013 69.4261 20.013Z" fill="#0086EE"/>
<path d="M85.1227 11.5674H93.1206L90.9893 15.7382H86.8631C86.4933 15.7382 86.1673 15.7526 85.8883 15.783C85.6077 15.8133 85.3011 15.8821 84.9654 15.9908C84.6296 16.0995 84.3523 16.2466 84.1333 16.4336C83.9127 16.6206 83.7311 16.8844 83.5851 17.2249C83.4391 17.5654 83.3678 17.9715 83.3678 18.4447V27.2147H78.8652V17.631C78.8652 16.7837 78.995 15.9972 79.2561 15.273C79.5156 14.5488 79.8984 13.9078 80.4045 13.3499C80.9089 12.7935 81.5642 12.3571 82.3703 12.0406C83.1748 11.7256 84.0928 11.5674 85.1227 11.5674Z" fill="#0086EE"/>
<path d="M108.215 27.2146H101.043C100.013 27.2146 99.0918 27.0564 98.2824 26.7414C97.4714 26.4265 96.8162 25.9901 96.3166 25.4322C95.8154 24.8758 95.4359 24.2348 95.1764 23.509C94.9169 22.7848 94.7871 21.9983 94.7871 21.1494V17.6293C94.7871 16.782 94.9169 15.9955 95.1764 15.2713C95.4359 14.5471 95.8187 13.9061 96.3247 13.3481C96.8291 12.7918 97.4844 12.3554 98.2905 12.0389C99.095 11.7239 100.013 11.5657 101.045 11.5657H108.217C109.247 11.5657 110.165 11.7239 110.971 12.0389C111.775 12.3538 112.431 12.7902 112.937 13.3481C113.441 13.9061 113.824 14.5455 114.085 15.2713C114.345 15.9955 114.476 16.782 114.476 17.6293V21.1494C114.476 22.2924 114.254 23.314 113.808 24.2108C113.363 25.1076 112.659 25.8334 111.699 26.3849C110.736 26.9397 109.576 27.2146 108.215 27.2146ZM109.97 20.3533V18.4446C109.97 17.9714 109.897 17.5653 109.753 17.2248C109.607 16.8843 109.425 16.6205 109.205 16.4335C108.984 16.2464 108.707 16.0978 108.373 15.9907C108.037 15.882 107.73 15.8132 107.45 15.7828C107.169 15.7541 106.845 15.7381 106.475 15.7381H102.783C102.414 15.7381 102.088 15.7525 101.809 15.7828C101.528 15.8132 101.221 15.8788 100.886 15.9827C100.55 16.0866 100.276 16.2321 100.06 16.4191C99.8444 16.6061 99.6627 16.8731 99.5119 17.2168C99.3626 17.5621 99.2864 17.9714 99.2864 18.4446V20.3517C99.2864 20.8249 99.361 21.231 99.5119 21.5715C99.6627 21.912 99.8444 22.1757 100.06 22.3628C100.274 22.5498 100.55 22.6953 100.886 22.7992C101.221 22.9031 101.528 22.9687 101.809 22.999C102.089 23.0278 102.414 23.0438 102.783 23.0438H106.475C106.845 23.0438 107.171 23.0294 107.45 22.999C107.73 22.9687 108.037 22.9031 108.373 22.7992C108.708 22.6953 108.982 22.5498 109.198 22.3628C109.414 22.1757 109.596 21.912 109.746 21.5715C109.896 21.2326 109.97 20.8265 109.97 20.3533Z" fill="#0086EE"/>
<path d="M34.3469 39H5.63509C2.69525 39 0.3125 36.6515 0.3125 33.7539V5.45674C0.3125 2.55918 2.69525 0.210693 5.63509 0.210693H34.3469C37.2868 0.210693 39.6695 2.55918 39.6695 5.45674V33.7557C39.6695 36.6515 37.285 39 34.3469 39Z" fill="#0086EE"/>
<path d="M6.89674 12.2328C7.03158 11.9041 7.40771 11.7397 7.74481 11.8621L22.036 17.026C23.4766 17.603 23.45 18.7537 22.036 20.4517L13.4311 32.3829C13.2147 32.6837 12.7889 32.7501 12.4872 32.5281L8.67626 29.7232C8.37642 29.5028 8.31965 29.0832 8.54852 28.7929L14.1532 21.6757C14.8061 20.9238 14.721 20.4219 14.1532 20.0844L5.6761 17.0155C5.32303 16.8878 5.14561 16.4961 5.28755 16.1516L6.89674 12.2328Z" fill="white"/>
<path d="M25.669 23.6065L23.1816 27.2123C23.0237 27.4413 23.029 27.7421 23.1922 27.9677L26.384 32.3254C26.62 32.6472 27.0884 32.6909 27.3811 32.4198L30.6616 29.3859C30.9153 29.1515 30.9437 28.7651 30.7272 28.4958L26.7406 23.5662C26.4638 23.22 25.9227 23.241 25.669 23.6065Z" fill="white"/>
<path d="M23.161 10.7097H16.8591C16.7615 10.7097 16.6816 10.631 16.6816 10.5349V4.32355C16.6816 4.22737 16.7615 4.14868 16.8591 4.14868H23.161C23.2586 4.14868 23.3384 4.22737 23.3384 4.32355V10.5349C23.3384 10.631 23.2586 10.7097 23.161 10.7097Z" fill="white"/>
<path d="M26.951 13.541L32.4084 11.836C32.7508 11.7294 33.1181 11.9077 33.2387 12.2417L34.706 16.2882C34.8302 16.6292 34.6492 17.0051 34.3032 17.1275L28.7429 19.1036C28.3845 19.2312 27.9924 19.0389 27.8789 18.6804L26.5145 14.3629C26.4063 14.0166 26.5997 13.6494 26.951 13.541Z" fill="white"/>
<path d="M45.94 38V31H47.24V38H45.94ZM50.5534 38V32.1H48.2334V31H54.1734V32.1H51.8534V38H50.5534ZM61.0827 38V36.92L61.0127 36.69V34.8C61.0127 34.4333 60.9027 34.15 60.6827 33.95C60.4627 33.7433 60.1293 33.64 59.6827 33.64C59.3827 33.64 59.086 33.6867 58.7927 33.78C58.506 33.8733 58.2627 34.0033 58.0627 34.17L57.5727 33.26C57.8593 33.04 58.1993 32.8767 58.5927 32.77C58.9927 32.6567 59.406 32.6 59.8327 32.6C60.606 32.6 61.2027 32.7867 61.6227 33.16C62.0493 33.5267 62.2627 34.0967 62.2627 34.87V38H61.0827ZM59.4027 38.07C59.0027 38.07 58.6527 38.0033 58.3527 37.87C58.0527 37.73 57.8193 37.54 57.6527 37.3C57.4927 37.0533 57.4127 36.7767 57.4127 36.47C57.4127 36.17 57.4827 35.9 57.6227 35.66C57.7693 35.42 58.006 35.23 58.3327 35.09C58.6593 34.95 59.0927 34.88 59.6327 34.88H61.1827V35.71H59.7227C59.296 35.71 59.0093 35.78 58.8627 35.92C58.716 36.0533 58.6427 36.22 58.6427 36.42C58.6427 36.6467 58.7327 36.8267 58.9127 36.96C59.0927 37.0933 59.3427 37.16 59.6627 37.16C59.9693 37.16 60.2427 37.09 60.4827 36.95C60.7293 36.81 60.906 36.6033 61.0127 36.33L61.2227 37.08C61.1027 37.3933 60.886 37.6367 60.5727 37.81C60.266 37.9833 59.876 38.07 59.4027 38.07ZM66.8969 32.6C67.3235 32.6 67.7035 32.6833 68.0369 32.85C68.3769 33.0167 68.6435 33.2733 68.8369 33.62C69.0302 33.96 69.1269 34.4 69.1269 34.94V38H67.8769V35.1C67.8769 34.6267 67.7635 34.2733 67.5369 34.04C67.3169 33.8067 67.0069 33.69 66.6069 33.69C66.3135 33.69 66.0535 33.75 65.8269 33.87C65.6002 33.99 65.4235 34.17 65.2969 34.41C65.1769 34.6433 65.1169 34.94 65.1169 35.3V38H63.8669V32.66H65.0569V34.1L64.8469 33.66C65.0335 33.32 65.3035 33.06 65.6569 32.88C66.0169 32.6933 66.4302 32.6 66.8969 32.6ZM72.9823 38.07C72.469 38.07 72.0057 37.9567 71.5923 37.73C71.1857 37.4967 70.8657 37.1767 70.6323 36.77C70.399 36.3633 70.2823 35.8833 70.2823 35.33C70.2823 34.7767 70.399 34.2967 70.6323 33.89C70.8657 33.4833 71.1857 33.1667 71.5923 32.94C72.0057 32.7133 72.469 32.6 72.9823 32.6C73.429 32.6 73.829 32.7 74.1823 32.9C74.5357 33.0933 74.8157 33.39 75.0223 33.79C75.229 34.19 75.3323 34.7033 75.3323 35.33C75.3323 35.95 75.2323 36.4633 75.0323 36.87C74.8323 37.27 74.5557 37.57 74.2023 37.77C73.849 37.97 73.4423 38.07 72.9823 38.07ZM73.1323 37C73.4323 37 73.699 36.9333 73.9323 36.8C74.1723 36.6667 74.3623 36.4733 74.5023 36.22C74.649 35.9667 74.7223 35.67 74.7223 35.33C74.7223 34.9833 74.649 34.6867 74.5023 34.44C74.3623 34.1867 74.1723 33.9933 73.9323 33.86C73.699 33.7267 73.4323 33.66 73.1323 33.66C72.8323 33.66 72.5623 33.7267 72.3223 33.86C72.089 33.9933 71.899 34.1867 71.7523 34.44C71.6123 34.6867 71.5423 34.9833 71.5423 35.33C71.5423 35.67 71.6123 35.9667 71.7523 36.22C71.899 36.4733 72.089 36.6667 72.3223 36.8C72.5623 36.9333 72.8323 37 73.1323 37ZM74.7523 38V36.74L74.8023 35.32L74.7023 33.9V30.58H75.9423V38H74.7523ZM80.4713 38V31H81.5413L84.6013 36.11H84.0413L87.0513 31H88.1213L88.1313 38H86.9013L86.8913 32.93H87.1513L84.5913 37.2H84.0113L81.4113 32.93H81.7113V38H80.4713ZM92.042 38.1C91.5554 38.1 91.1187 38.02 90.732 37.86C90.3454 37.7 90.042 37.48 89.822 37.2C89.602 36.92 89.492 36.5967 89.492 36.23C89.492 35.8967 89.5654 35.5967 89.712 35.33C89.8587 35.0633 90.092 34.81 90.412 34.57C90.732 34.3233 91.142 34.0767 91.642 33.83C92.0354 33.6367 92.342 33.4667 92.562 33.32C92.7887 33.1733 92.9454 33.0333 93.032 32.9C93.1254 32.7667 93.172 32.6267 93.172 32.48C93.172 32.28 93.102 32.12 92.962 32C92.822 31.8733 92.622 31.81 92.362 31.81C92.082 31.81 91.862 31.88 91.702 32.02C91.5487 32.1533 91.472 32.33 91.472 32.55C91.472 32.6633 91.492 32.7733 91.532 32.88C91.5787 32.9867 91.6587 33.1067 91.772 33.24C91.8854 33.3733 92.0487 33.5433 92.262 33.75L95.962 37.3L95.272 38.11L91.272 34.27C91.0454 34.05 90.862 33.8467 90.722 33.66C90.582 33.4733 90.482 33.2933 90.422 33.12C90.362 32.94 90.332 32.7567 90.332 32.57C90.332 32.2433 90.4154 31.9567 90.582 31.71C90.7487 31.4567 90.9854 31.2633 91.292 31.13C91.5987 30.99 91.9554 30.92 92.362 30.92C92.742 30.92 93.0687 30.9833 93.342 31.11C93.622 31.23 93.8387 31.4067 93.992 31.64C94.152 31.8667 94.232 32.14 94.232 32.46C94.232 32.74 94.162 33 94.022 33.24C93.882 33.4733 93.662 33.6967 93.362 33.91C93.0687 34.1233 92.6754 34.3467 92.182 34.58C91.8154 34.76 91.5254 34.93 91.312 35.09C91.0987 35.25 90.9454 35.41 90.852 35.57C90.7587 35.73 90.712 35.9067 90.712 36.1C90.712 36.2933 90.7687 36.4633 90.882 36.61C91.002 36.7567 91.1687 36.8733 91.382 36.96C91.5954 37.04 91.8454 37.08 92.132 37.08C92.5587 37.08 92.9454 36.9867 93.292 36.8C93.6454 36.6067 93.942 36.32 94.182 35.94C94.422 35.56 94.5954 35.09 94.702 34.53L95.712 34.86C95.572 35.5333 95.3287 36.1133 94.982 36.6C94.642 37.08 94.222 37.45 93.722 37.71C93.222 37.97 92.662 38.1 92.042 38.1ZM97.0826 38V31H98.1526L101.213 36.11H100.653L103.663 31H104.733L104.743 38H103.513L103.503 32.93H103.763L101.203 37.2H100.623L98.0226 32.93H98.3226V38H97.0826ZM112.667 38.1C112.12 38.1 111.617 38.0133 111.157 37.84C110.704 37.66 110.307 37.41 109.967 37.09C109.627 36.7633 109.364 36.38 109.177 35.94C108.99 35.5 108.897 35.02 108.897 34.5C108.897 33.98 108.99 33.5 109.177 33.06C109.364 32.62 109.627 32.24 109.967 31.92C110.314 31.5933 110.717 31.3433 111.177 31.17C111.637 30.99 112.14 30.9 112.687 30.9C113.28 30.9 113.814 30.9967 114.287 31.19C114.767 31.3833 115.17 31.6667 115.497 32.04L114.677 32.84C114.404 32.5667 114.107 32.3667 113.787 32.24C113.474 32.1067 113.127 32.04 112.747 32.04C112.38 32.04 112.04 32.1 111.727 32.22C111.414 32.34 111.144 32.51 110.917 32.73C110.69 32.95 110.514 33.21 110.387 33.51C110.267 33.81 110.207 34.14 110.207 34.5C110.207 34.8533 110.267 35.18 110.387 35.48C110.514 35.78 110.69 36.0433 110.917 36.27C111.144 36.49 111.41 36.66 111.717 36.78C112.024 36.9 112.364 36.96 112.737 36.96C113.084 36.96 113.417 36.9067 113.737 36.8C114.064 36.6867 114.374 36.5 114.667 36.24L115.407 37.21C115.04 37.5033 114.614 37.7267 114.127 37.88C113.647 38.0267 113.16 38.1 112.667 38.1ZM114.177 37.04V34.42H115.407V37.21L114.177 37.04ZM117.002 38V32.66H118.192V34.13L118.052 33.7C118.212 33.34 118.462 33.0667 118.802 32.88C119.148 32.6933 119.578 32.6 120.092 32.6V33.79C120.038 33.7767 119.988 33.77 119.942 33.77C119.895 33.7633 119.848 33.76 119.802 33.76C119.328 33.76 118.952 33.9 118.672 34.18C118.392 34.4533 118.252 34.8633 118.252 35.41V38H117.002ZM123.503 38.07C122.957 38.07 122.47 37.9533 122.043 37.72C121.617 37.48 121.28 37.1533 121.033 36.74C120.787 36.3267 120.663 35.8567 120.663 35.33C120.663 34.7967 120.787 34.3267 121.033 33.92C121.28 33.5067 121.617 33.1833 122.043 32.95C122.47 32.7167 122.957 32.6 123.503 32.6C124.057 32.6 124.547 32.7167 124.973 32.95C125.407 33.1833 125.743 33.5033 125.983 33.91C126.23 34.3167 126.353 34.79 126.353 35.33C126.353 35.8567 126.23 36.3267 125.983 36.74C125.743 37.1533 125.407 37.48 124.973 37.72C124.547 37.9533 124.057 38.07 123.503 38.07ZM123.503 37C123.81 37 124.083 36.9333 124.323 36.8C124.563 36.6667 124.75 36.4733 124.883 36.22C125.023 35.9667 125.093 35.67 125.093 35.33C125.093 34.9833 125.023 34.6867 124.883 34.44C124.75 34.1867 124.563 33.9933 124.323 33.86C124.083 33.7267 123.813 33.66 123.513 33.66C123.207 33.66 122.933 33.7267 122.693 33.86C122.46 33.9933 122.273 34.1867 122.133 34.44C121.993 34.6867 121.923 34.9833 121.923 35.33C121.923 35.67 121.993 35.9667 122.133 36.22C122.273 36.4733 122.46 36.6667 122.693 36.8C122.933 36.9333 123.203 37 123.503 37ZM129.809 38.07C129.355 38.07 128.955 37.9867 128.609 37.82C128.262 37.6467 127.992 37.3867 127.799 37.04C127.605 36.6867 127.509 36.2433 127.509 35.71V32.66H128.759V35.54C128.759 36.02 128.865 36.38 129.079 36.62C129.299 36.8533 129.609 36.97 130.009 36.97C130.302 36.97 130.555 36.91 130.769 36.79C130.989 36.67 131.159 36.49 131.279 36.25C131.405 36.01 131.469 35.7133 131.469 35.36V32.66H132.719V38H131.529V36.56L131.739 37C131.559 37.3467 131.295 37.6133 130.949 37.8C130.602 37.98 130.222 38.07 129.809 38.07ZM137.315 38.07C136.882 38.07 136.485 37.97 136.125 37.77C135.772 37.57 135.488 37.27 135.275 36.87C135.068 36.4633 134.965 35.95 134.965 35.33C134.965 34.7033 135.065 34.19 135.265 33.79C135.472 33.39 135.752 33.0933 136.105 32.9C136.458 32.7 136.862 32.6 137.315 32.6C137.842 32.6 138.305 32.7133 138.705 32.94C139.112 33.1667 139.432 33.4833 139.665 33.89C139.905 34.2967 140.025 34.7767 140.025 35.33C140.025 35.8833 139.905 36.3667 139.665 36.78C139.432 37.1867 139.112 37.5033 138.705 37.73C138.305 37.9567 137.842 38.07 137.315 38.07ZM134.355 39.94V32.66H135.545V33.92L135.505 35.34L135.605 36.76V39.94H134.355ZM137.175 37C137.475 37 137.742 36.9333 137.975 36.8C138.215 36.6667 138.405 36.4733 138.545 36.22C138.685 35.9667 138.755 35.67 138.755 35.33C138.755 34.9833 138.685 34.6867 138.545 34.44C138.405 34.1867 138.215 33.9933 137.975 33.86C137.742 33.7267 137.475 33.66 137.175 33.66C136.875 33.66 136.605 33.7267 136.365 33.86C136.125 33.9933 135.935 34.1867 135.795 34.44C135.655 34.6867 135.585 34.9833 135.585 35.33C135.585 35.67 135.655 35.9667 135.795 36.22C135.935 36.4733 136.125 36.6667 136.365 36.8C136.605 36.9333 136.875 37 137.175 37Z" fill="white"/>
</g>
<defs>
<clipPath id="clip0_518_476">
<rect width="141" height="40" fill="white"/>
</clipPath>
</defs>
</svg>
