<svg width="770" height="156" viewBox="0 0 770 156" fill="none" xmlns="http://www.w3.org/2000/svg">
<mask id="path-1-outside-1_579_3449" maskUnits="userSpaceOnUse" x="0" y="33" width="767" height="92" fill="black">
<rect fill="white" y="33" width="767" height="92"/>
<path d="M2.152 124L39.912 72.032V84.576L3.944 34.4H22.76L49.512 71.52L41.832 71.648L68.328 34.4H86.376L50.664 83.68V71.648L88.68 124H69.48L41.32 84.576H48.872L21.096 124H2.152ZM98.782 124V34.4H115.422V124H98.782ZM132.873 124V112.864L190.729 42.208L192.649 48.48H133.769V34.4H207.625V45.536L149.769 116.192L147.721 109.92H209.289V124H132.873ZM224.532 124V34.4H238.228L277.396 99.808H270.228L308.756 34.4H322.452L322.58 124H306.836L306.708 59.104H310.036L277.268 113.76H269.844L236.564 59.104H240.404V124H224.532ZM334.11 124L374.43 34.4H390.814L431.262 124H413.854L379.166 43.232H385.822L351.262 124H334.11ZM352.67 103.264L357.15 90.208H405.534L410.014 103.264H352.67ZM456.333 124V48.48H426.637V34.4H502.669V48.48H472.973V124H456.333ZM515.157 124V34.4H531.797V109.92H578.645V124H515.157ZM579.235 124L619.555 34.4H635.939L676.387 124H658.979L624.291 43.232H630.947L596.387 124H579.235ZM597.795 103.264L602.275 90.208H650.659L655.139 103.264H597.795ZM687.782 124V34.4H724.646C732.582 34.4 739.366 35.68 744.998 38.24C750.715 40.8 755.11 44.4693 758.182 49.248C761.254 54.0267 762.79 59.7013 762.79 66.272C762.79 72.8427 761.254 78.5173 758.182 83.296C755.11 87.9893 750.715 91.616 744.998 94.176C739.366 96.6507 732.582 97.888 724.646 97.888H696.998L704.422 90.336V124H687.782ZM746.406 124L723.75 91.488H741.542L764.326 124H746.406ZM704.422 92.128L696.998 84.192H723.878C731.217 84.192 736.721 82.6133 740.39 79.456C744.145 76.2987 746.022 71.904 746.022 66.272C746.022 60.5547 744.145 56.16 740.39 53.088C736.721 50.016 731.217 48.48 723.878 48.48H696.998L704.422 40.288V92.128Z"/>
</mask>
<path d="M2.152 124L1.34301 123.412L0.189297 125H2.152V124ZM39.912 72.032H40.912V68.9545L39.103 71.4442L39.912 72.032ZM39.912 84.576L39.0993 85.1586L40.912 87.6874V84.576H39.912ZM3.944 34.4V33.4H1.99678L3.13125 34.9826L3.944 34.4ZM22.76 34.4L23.5713 33.8153L23.2719 33.4H22.76V34.4ZM49.512 71.52L49.5287 72.5199L51.4422 72.488L50.3233 70.9353L49.512 71.52ZM41.832 71.648L41.0171 71.0684L39.8701 72.6808L41.8487 72.6479L41.832 71.648ZM68.328 34.4V33.4H67.8121L67.5131 33.8203L68.328 34.4ZM86.376 34.4L87.1857 34.9868L88.3357 33.4H86.376V34.4ZM50.664 83.68H49.664V86.7641L51.4737 84.2668L50.664 83.68ZM50.664 71.648L51.4732 71.0604L49.664 68.569V71.648H50.664ZM88.68 124V125H90.642L89.4892 123.412L88.68 124ZM69.48 124L68.6663 124.581L68.9654 125H69.48V124ZM41.32 84.576V83.576H39.3768L40.5063 85.1572L41.32 84.576ZM48.872 84.576L49.6895 85.1519L50.7998 83.576H48.872V84.576ZM21.096 124V125H21.6147L21.9135 124.576L21.096 124ZM2.96099 124.588L40.721 72.6198L39.103 71.4442L1.34301 123.412L2.96099 124.588ZM38.912 72.032V84.576H40.912V72.032H38.912ZM40.7248 83.9934L4.75675 33.8174L3.13125 34.9826L39.0993 85.1586L40.7248 83.9934ZM3.944 35.4H22.76V33.4H3.944V35.4ZM21.9487 34.9847L48.7007 72.1047L50.3233 70.9353L23.5713 33.8153L21.9487 34.9847ZM49.4953 70.5201L41.8153 70.6481L41.8487 72.6479L49.5287 72.5199L49.4953 70.5201ZM42.6469 72.2276L69.1429 34.9796L67.5131 33.8203L41.0171 71.0684L42.6469 72.2276ZM68.328 35.4H86.376V33.4H68.328V35.4ZM85.5663 33.8132L49.8543 83.0932L51.4737 84.2668L87.1857 34.9868L85.5663 33.8132ZM51.664 83.68V71.648H49.664V83.68H51.664ZM49.8548 72.2356L87.8708 124.588L89.4892 123.412L51.4732 71.0604L49.8548 72.2356ZM88.68 123H69.48V125H88.68V123ZM70.2937 123.419L42.1337 83.9948L40.5063 85.1572L68.6663 124.581L70.2937 123.419ZM41.32 85.576H48.872V83.576H41.32V85.576ZM48.0545 84L20.2785 123.424L21.9135 124.576L49.6895 85.1519L48.0545 84ZM21.096 123H2.152V125H21.096V123ZM98.782 124H97.782V125H98.782V124ZM98.782 34.4V33.4H97.782V34.4H98.782ZM115.422 34.4H116.422V33.4H115.422V34.4ZM115.422 124V125H116.422V124H115.422ZM99.782 124V34.4H97.782V124H99.782ZM98.782 35.4H115.422V33.4H98.782V35.4ZM114.422 34.4V124H116.422V34.4H114.422ZM115.422 123H98.782V125H115.422V123ZM132.873 124H131.873V125H132.873V124ZM132.873 112.864L132.099 112.23L131.873 112.507V112.864H132.873ZM190.729 42.208L191.685 41.9153L191.139 40.1294L189.955 41.5744L190.729 42.208ZM192.649 48.48V49.48H194.001L193.605 48.1873L192.649 48.48ZM133.769 48.48H132.769V49.48H133.769V48.48ZM133.769 34.4V33.4H132.769V34.4H133.769ZM207.625 34.4H208.625V33.4H207.625V34.4ZM207.625 45.536L208.399 46.1695L208.625 45.8932V45.536H207.625ZM149.769 116.192L148.818 116.502L149.385 118.239L150.543 116.826L149.769 116.192ZM147.721 109.92V108.92H146.343L146.77 110.23L147.721 109.92ZM209.289 109.92H210.289V108.92H209.289V109.92ZM209.289 124V125H210.289V124H209.289ZM133.873 124V112.864H131.873V124H133.873ZM133.647 113.498L191.503 42.8415L189.955 41.5744L132.099 112.23L133.647 113.498ZM189.773 42.5007L191.693 48.7727L193.605 48.1873L191.685 41.9153L189.773 42.5007ZM192.649 47.48H133.769V49.48H192.649V47.48ZM134.769 48.48V34.4H132.769V48.48H134.769ZM133.769 35.4H207.625V33.4H133.769V35.4ZM206.625 34.4V45.536H208.625V34.4H206.625ZM206.851 44.9025L148.995 115.558L150.543 116.826L208.399 46.1695L206.851 44.9025ZM150.72 115.882L148.672 109.61L146.77 110.23L148.818 116.502L150.72 115.882ZM147.721 110.92H209.289V108.92H147.721V110.92ZM208.289 109.92V124H210.289V109.92H208.289ZM209.289 123H132.873V125H209.289V123ZM224.532 124H223.532V125H224.532V124ZM224.532 34.4V33.4H223.532V34.4H224.532ZM238.228 34.4L239.086 33.8862L238.795 33.4H238.228V34.4ZM277.396 99.808V100.808H279.16L278.254 99.2942L277.396 99.808ZM270.228 99.808L269.366 99.3005L268.478 100.808H270.228V99.808ZM308.756 34.4V33.4H308.184L307.894 33.8925L308.756 34.4ZM322.452 34.4L323.452 34.3986L323.451 33.4H322.452V34.4ZM322.58 124V125H323.581L323.58 123.999L322.58 124ZM306.836 124L305.836 124.002L305.838 125H306.836V124ZM306.708 59.104V58.104H305.706L305.708 59.106L306.708 59.104ZM310.036 59.104L310.894 59.6182L311.801 58.104H310.036V59.104ZM277.268 113.76V114.76H277.834L278.126 114.274L277.268 113.76ZM269.844 113.76L268.99 114.28L269.282 114.76H269.844V113.76ZM236.564 59.104V58.104H234.784L235.71 59.6241L236.564 59.104ZM240.404 59.104H241.404V58.104H240.404V59.104ZM240.404 124V125H241.404V124H240.404ZM225.532 124V34.4H223.532V124H225.532ZM224.532 35.4H238.228V33.4H224.532V35.4ZM237.37 34.9137L276.538 100.322L278.254 99.2942L239.086 33.8862L237.37 34.9137ZM277.396 98.808H270.228V100.808H277.396V98.808ZM271.09 100.316L309.618 34.9075L307.894 33.8925L269.366 99.3005L271.09 100.316ZM308.756 35.4H322.452V33.4H308.756V35.4ZM321.452 34.4014L321.58 124.001L323.58 123.999L323.452 34.3986L321.452 34.4014ZM322.58 123H306.836V125H322.58V123ZM307.836 123.998L307.708 59.102L305.708 59.106L305.836 124.002L307.836 123.998ZM306.708 60.104H310.036V58.104H306.708V60.104ZM309.178 58.5898L276.41 113.246L278.126 114.274L310.894 59.6182L309.178 58.5898ZM277.268 112.76H269.844V114.76H277.268V112.76ZM270.698 113.24L237.418 58.5839L235.71 59.6241L268.99 114.28L270.698 113.24ZM236.564 60.104H240.404V58.104H236.564V60.104ZM239.404 59.104V124H241.404V59.104H239.404ZM240.404 123H224.532V125H240.404V123ZM334.11 124L333.198 123.59L332.563 125H334.11V124ZM374.43 34.4V33.4H373.783L373.518 33.9896L374.43 34.4ZM390.814 34.4L391.725 33.9885L391.46 33.4H390.814V34.4ZM431.262 124V125H432.811L432.173 123.589L431.262 124ZM413.854 124L412.935 124.395L413.195 125H413.854V124ZM379.166 43.232V42.232H377.648L378.247 43.6266L379.166 43.232ZM385.822 43.232L386.741 43.6254L387.338 42.232H385.822V43.232ZM351.262 124V125H351.922L352.181 124.393L351.262 124ZM352.67 103.264L351.724 102.939L351.27 104.264H352.67V103.264ZM357.15 90.208V89.208H356.436L356.204 89.8834L357.15 90.208ZM405.534 90.208L406.48 89.8834L406.248 89.208H405.534V90.208ZM410.014 103.264V104.264H411.414L410.96 102.939L410.014 103.264ZM335.022 124.41L375.342 34.8104L373.518 33.9896L333.198 123.59L335.022 124.41ZM374.43 35.4H390.814V33.4H374.43V35.4ZM389.903 34.8114L430.351 124.411L432.173 123.589L391.725 33.9885L389.903 34.8114ZM431.262 123H413.854V125H431.262V123ZM414.773 123.605L380.085 42.8374L378.247 43.6266L412.935 124.395L414.773 123.605ZM379.166 44.232H385.822V42.232H379.166V44.232ZM384.903 42.8386L350.343 123.607L352.181 124.393L386.741 43.6254L384.903 42.8386ZM351.262 123H334.11V125H351.262V123ZM353.616 103.589L358.096 90.5326L356.204 89.8834L351.724 102.939L353.616 103.589ZM357.15 91.208H405.534V89.208H357.15V91.208ZM404.588 90.5326L409.068 103.589L410.96 102.939L406.48 89.8834L404.588 90.5326ZM410.014 102.264H352.67V104.264H410.014V102.264ZM456.333 124H455.333V125H456.333V124ZM456.333 48.48H457.333V47.48H456.333V48.48ZM426.637 48.48H425.637V49.48H426.637V48.48ZM426.637 34.4V33.4H425.637V34.4H426.637ZM502.669 34.4H503.669V33.4H502.669V34.4ZM502.669 48.48V49.48H503.669V48.48H502.669ZM472.973 48.48V47.48H471.973V48.48H472.973ZM472.973 124V125H473.973V124H472.973ZM457.333 124V48.48H455.333V124H457.333ZM456.333 47.48H426.637V49.48H456.333V47.48ZM427.637 48.48V34.4H425.637V48.48H427.637ZM426.637 35.4H502.669V33.4H426.637V35.4ZM501.669 34.4V48.48H503.669V34.4H501.669ZM502.669 47.48H472.973V49.48H502.669V47.48ZM471.973 48.48V124H473.973V48.48H471.973ZM472.973 123H456.333V125H472.973V123ZM515.157 124H514.157V125H515.157V124ZM515.157 34.4V33.4H514.157V34.4H515.157ZM531.797 34.4H532.797V33.4H531.797V34.4ZM531.797 109.92H530.797V110.92H531.797V109.92ZM578.645 109.92H579.645V108.92H578.645V109.92ZM578.645 124V125H579.645V124H578.645ZM516.157 124V34.4H514.157V124H516.157ZM515.157 35.4H531.797V33.4H515.157V35.4ZM530.797 34.4V109.92H532.797V34.4H530.797ZM531.797 110.92H578.645V108.92H531.797V110.92ZM577.645 109.92V124H579.645V109.92H577.645ZM578.645 123H515.157V125H578.645V123ZM579.235 124L578.323 123.59L577.688 125H579.235V124ZM619.555 34.4V33.4H618.908L618.643 33.9896L619.555 34.4ZM635.939 34.4L636.85 33.9885L636.585 33.4H635.939V34.4ZM676.387 124V125H677.936L677.298 123.589L676.387 124ZM658.979 124L658.06 124.395L658.32 125H658.979V124ZM624.291 43.232V42.232H622.773L623.372 43.6266L624.291 43.232ZM630.947 43.232L631.866 43.6254L632.463 42.232H630.947V43.232ZM596.387 124V125H597.047L597.306 124.393L596.387 124ZM597.795 103.264L596.849 102.939L596.395 104.264H597.795V103.264ZM602.275 90.208V89.208H601.561L601.329 89.8834L602.275 90.208ZM650.659 90.208L651.605 89.8834L651.373 89.208H650.659V90.208ZM655.139 103.264V104.264H656.539L656.085 102.939L655.139 103.264ZM580.147 124.41L620.467 34.8104L618.643 33.9896L578.323 123.59L580.147 124.41ZM619.555 35.4H635.939V33.4H619.555V35.4ZM635.028 34.8114L675.476 124.411L677.298 123.589L636.85 33.9885L635.028 34.8114ZM676.387 123H658.979V125H676.387V123ZM659.898 123.605L625.21 42.8374L623.372 43.6266L658.06 124.395L659.898 123.605ZM624.291 44.232H630.947V42.232H624.291V44.232ZM630.028 42.8386L595.468 123.607L597.306 124.393L631.866 43.6254L630.028 42.8386ZM596.387 123H579.235V125H596.387V123ZM598.741 103.589L603.221 90.5326L601.329 89.8834L596.849 102.939L598.741 103.589ZM602.275 91.208H650.659V89.208H602.275V91.208ZM649.713 90.5326L654.193 103.589L656.085 102.939L651.605 89.8834L649.713 90.5326ZM655.139 102.264H597.795V104.264H655.139V102.264ZM687.782 124H686.782V125H687.782V124ZM687.782 34.4V33.4H686.782V34.4H687.782ZM744.998 38.24L744.584 39.1504L744.589 39.1527L744.998 38.24ZM758.182 49.248L759.023 48.7072L758.182 49.248ZM758.182 83.296L759.019 83.8437L759.023 83.8368L758.182 83.296ZM744.998 94.176L745.4 95.0915L745.407 95.0887L744.998 94.176ZM696.998 97.888L696.285 97.187L694.613 98.888H696.998V97.888ZM704.422 90.336H705.422V87.8923L703.709 89.635L704.422 90.336ZM704.422 124V125H705.422V124H704.422ZM746.406 124L745.586 124.572L745.884 125H746.406V124ZM723.75 91.488V90.488H721.834L722.93 92.0597L723.75 91.488ZM741.542 91.488L742.361 90.9141L742.062 90.488H741.542V91.488ZM764.326 124V125H766.248L765.145 123.426L764.326 124ZM704.422 92.128L703.692 92.8112L705.422 94.6608V92.128H704.422ZM696.998 84.192V83.192H694.693L696.268 84.8752L696.998 84.192ZM740.39 79.456L739.746 78.6906L739.738 78.698L740.39 79.456ZM740.39 53.088L739.748 53.8548L739.757 53.862L740.39 53.088ZM696.998 48.48L696.257 47.8085L694.742 49.48H696.998V48.48ZM704.422 40.288H705.422V37.6954L703.681 39.6165L704.422 40.288ZM688.782 124V34.4H686.782V124H688.782ZM687.782 35.4H724.646V33.4H687.782V35.4ZM724.646 35.4C732.478 35.4 739.113 36.6636 744.584 39.1504L745.412 37.3296C739.619 34.6964 732.686 33.4 724.646 33.4V35.4ZM744.589 39.1527C750.148 41.6418 754.385 45.19 757.341 49.7887L759.023 48.7072C755.836 43.7486 751.282 39.9582 745.407 37.3273L744.589 39.1527ZM757.341 49.7887C760.294 54.3821 761.79 59.8624 761.79 66.272H763.79C763.79 59.5403 762.214 53.6712 759.023 48.7072L757.341 49.7887ZM761.79 66.272C761.79 72.6816 760.294 78.1619 757.341 82.7552L759.023 83.8368C762.214 78.8728 763.79 73.0037 763.79 66.272H761.79ZM757.345 82.7483C754.39 87.2633 750.153 90.7721 744.589 93.2633L745.407 95.0887C751.278 92.4599 755.83 88.7154 759.019 83.8437L757.345 82.7483ZM744.596 93.2605C739.122 95.6658 732.482 96.888 724.646 96.888V98.888C732.682 98.888 739.61 97.6355 745.4 95.0915L744.596 93.2605ZM724.646 96.888H696.998V98.888H724.646V96.888ZM697.711 98.589L705.135 91.037L703.709 89.635L696.285 97.187L697.711 98.589ZM703.422 90.336V124H705.422V90.336H703.422ZM704.422 123H687.782V125H704.422V123ZM747.226 123.428L724.57 90.9163L722.93 92.0597L745.586 124.572L747.226 123.428ZM723.75 92.488H741.542V90.488H723.75V92.488ZM740.723 92.0619L763.507 124.574L765.145 123.426L742.361 90.9141L740.723 92.0619ZM764.326 123H746.406V125H764.326V123ZM705.152 91.4448L697.728 83.5088L696.268 84.8752L703.692 92.8112L705.152 91.4448ZM696.998 85.192H723.878V83.192H696.998V85.192ZM723.878 85.192C731.337 85.192 737.118 83.5906 741.042 80.214L739.738 78.698C736.323 81.636 731.096 83.192 723.878 83.192V85.192ZM741.034 80.2214C745.049 76.8447 747.022 72.1504 747.022 66.272H745.022C745.022 71.6576 743.24 75.7526 739.746 78.6906L741.034 80.2214ZM747.022 66.272C747.022 60.3143 745.053 55.6107 741.023 52.314L739.757 53.862C743.237 56.7093 745.022 60.795 745.022 66.272H747.022ZM741.032 52.3212C737.108 49.0364 731.332 47.48 723.878 47.48V49.48C731.102 49.48 736.333 50.9956 739.748 53.8548L741.032 52.3212ZM723.878 47.48H696.998V49.48H723.878V47.48ZM697.739 49.1515L705.163 40.9595L703.681 39.6165L696.257 47.8085L697.739 49.1515ZM703.422 40.288V92.128H705.422V40.288H703.422Z" fill="white" fill-opacity="0.25" mask="url(#path-1-outside-1_579_3449)"/>
<path d="M193.576 101L212.456 75.016V81.288L194.472 56.2H203.88L217.256 74.76L213.416 74.824L226.664 56.2H235.688L217.832 80.84V74.824L236.84 101H227.24L213.16 81.288H216.936L203.048 101H193.576ZM241.891 101V56.2H250.211V101H241.891ZM258.937 101V95.432L287.865 60.104L288.825 63.24H259.385V56.2H296.312V61.768L267.385 97.096L266.361 93.96H297.145V101H258.937ZM304.766 101V56.2H311.614L331.198 88.904H327.614L346.878 56.2H353.726L353.79 101H345.918L345.854 68.552H347.518L331.134 95.88H327.422L310.782 68.552H312.702V101H304.766ZM359.555 101L379.715 56.2H387.907L408.131 101H399.427L382.083 60.616H385.411L368.131 101H359.555ZM368.835 90.632L371.075 84.104H395.267L397.507 90.632H368.835ZM420.667 101V63.24H405.819V56.2H443.835V63.24H428.987V101H420.667ZM450.079 101V56.2H458.399V93.96H481.823V101H450.079ZM482.117 101L502.278 56.2H510.47L530.694 101H521.99L504.646 60.616H507.974L490.694 101H482.117ZM491.398 90.632L493.638 84.104H517.83L520.069 90.632H491.398ZM536.391 101V56.2H554.823C558.791 56.2 562.183 56.84 564.999 58.12C567.858 59.4 570.055 61.2347 571.591 63.624C573.127 66.0133 573.895 68.8507 573.895 72.136C573.895 75.4213 573.127 78.2587 571.591 80.648C570.055 82.9947 567.858 84.808 564.999 86.088C562.183 87.3253 558.791 87.944 554.823 87.944H540.999L544.711 84.168V101H536.391ZM565.703 101L554.375 84.744H563.271L574.663 101H565.703ZM544.711 85.064L540.999 81.096H554.439C558.108 81.096 560.86 80.3067 562.695 78.728C564.572 77.1493 565.511 74.952 565.511 72.136C565.511 69.2773 564.572 67.08 562.695 65.544C560.86 64.008 558.108 63.24 554.439 63.24H540.999L544.711 59.144V85.064Z" fill="white"/>
</svg>
