<svg width="775" height="95" viewBox="0 0 775 95" fill="none" xmlns="http://www.w3.org/2000/svg">
<mask id="path-1-outside-1_579_3156" maskUnits="userSpaceOnUse" x="0" y="0" width="775" height="95" fill="black">
<rect fill="white" width="775" height="95"/>
<path d="M41.528 92L2.36 2.39999H20.408L55.352 83.424H44.984L80.312 2.39999H96.952L57.912 92H41.528ZM90.86 92L131.18 2.39999H147.564L188.012 92H170.604L135.916 11.232H142.572L108.012 92H90.86ZM109.42 71.264L113.9 58.208H162.284L166.764 71.264H109.42ZM214.255 70.88L213.359 51.168L260.335 2.39999H279.023L239.983 43.872L230.767 53.984L214.255 70.88ZM199.407 92V2.39999H216.047V92H199.407ZM261.871 92L227.567 51.168L238.575 39.008L281.327 92H261.871ZM276.11 92L316.43 2.39999H332.814L373.262 92H355.854L321.166 11.232H327.822L293.262 92H276.11ZM294.67 71.264L299.15 58.208H347.534L352.014 71.264H294.67ZM384.657 92V2.39999H398.353L454.545 71.392H447.761V2.39999H464.273V92H450.577L394.385 23.008H401.169V92H384.657ZM516.058 93.28C509.061 93.28 502.362 92.2987 495.962 90.336C489.562 88.288 484.485 85.6853 480.73 82.528L486.49 69.6C490.074 72.416 494.511 74.7627 499.802 76.64C505.093 78.5173 510.511 79.456 516.058 79.456C520.751 79.456 524.549 78.944 527.45 77.92C530.351 76.896 532.485 75.5307 533.85 73.824C535.215 72.032 535.898 70.0267 535.898 67.808C535.898 65.0773 534.917 62.9013 532.954 61.28C530.991 59.5733 528.431 58.2507 525.274 57.312C522.202 56.288 518.746 55.3493 514.906 54.496C511.151 53.6427 507.354 52.6613 503.514 51.552C499.759 50.3573 496.303 48.864 493.146 47.072C490.074 45.1947 487.557 42.72 485.594 39.648C483.631 36.576 482.65 32.6507 482.65 27.872C482.65 23.008 483.93 18.5707 486.49 14.56C489.135 10.464 493.103 7.22133 498.394 4.83199C503.77 2.35733 510.554 1.12 518.746 1.12C524.122 1.12 529.455 1.80266 534.746 3.168C540.037 4.53333 544.645 6.496 548.57 9.056L543.322 21.984C539.311 19.5947 535.173 17.8453 530.906 16.736C526.639 15.5413 522.543 14.944 518.618 14.944C514.01 14.944 510.255 15.4987 507.354 16.608C504.538 17.7173 502.447 19.168 501.082 20.96C499.802 22.752 499.162 24.8 499.162 27.104C499.162 29.8347 500.101 32.0533 501.978 33.76C503.941 35.3813 506.458 36.6613 509.53 37.6C512.687 38.5387 516.186 39.4773 520.026 40.416C523.866 41.2693 527.663 42.2507 531.418 43.36C535.258 44.4693 538.714 45.92 541.786 47.712C544.943 49.504 547.461 51.936 549.338 55.008C551.301 58.08 552.282 61.9627 552.282 66.656C552.282 71.4347 550.959 75.872 548.314 79.968C545.754 83.9787 541.786 87.2213 536.41 89.696C531.034 92.0853 524.25 93.28 516.058 93.28ZM568.782 92V2.39999H585.422V92H568.782ZM631.673 92V56.544L635.385 66.784L596.473 2.39999H614.265L645.497 54.24H635.513L667.001 2.39999H683.385L644.473 66.784L648.313 56.544V92H631.673ZM676.235 92L716.555 2.39999H732.939L773.387 92H755.979L721.291 11.232H727.947L693.387 92H676.235ZM694.795 71.264L699.275 58.208H747.659L752.139 71.264H694.795Z"/>
</mask>
<path d="M41.528 92L40.6117 92.4005L40.8738 93H41.528V92ZM2.36 2.39999V1.39999H0.831485L1.44372 2.80054L2.36 2.39999ZM20.408 2.39999L21.3262 2.00397L21.0658 1.39999H20.408V2.39999ZM55.352 83.424V84.424H56.8723L56.2702 83.028L55.352 83.424ZM44.984 83.424L44.0673 83.0243L43.4571 84.424H44.984V83.424ZM80.312 2.39999V1.39999H79.6571L79.3953 2.00032L80.312 2.39999ZM96.952 2.39999L97.8688 2.79944L98.4785 1.39999H96.952V2.39999ZM57.912 92V93H58.5671L58.8288 92.3994L57.912 92ZM42.4443 91.5995L3.27628 1.99945L1.44372 2.80054L40.6117 92.4005L42.4443 91.5995ZM2.36 3.39999H20.408V1.39999H2.36V3.39999ZM19.4898 2.79601L54.4338 83.82L56.2702 83.028L21.3262 2.00397L19.4898 2.79601ZM55.352 82.424H44.984V84.424H55.352V82.424ZM45.9007 83.8237L81.2287 2.79967L79.3953 2.00032L44.0673 83.0243L45.9007 83.8237ZM80.312 3.39999H96.952V1.39999H80.312V3.39999ZM96.0352 2.00055L56.9952 91.6006L58.8288 92.3994L97.8688 2.79944L96.0352 2.00055ZM57.912 91H41.528V93H57.912V91ZM90.86 92L89.9481 91.5896L89.3134 93H90.86V92ZM131.18 2.39999V1.39999H130.533L130.268 1.98963L131.18 2.39999ZM147.564 2.39999L148.475 1.98855L148.21 1.39999H147.564V2.39999ZM188.012 92V93H189.561L188.923 91.5886L188.012 92ZM170.604 92L169.685 92.3946L169.945 93H170.604V92ZM135.916 11.232V10.232H134.398L134.997 11.6266L135.916 11.232ZM142.572 11.232L143.491 11.6254L144.088 10.232H142.572V11.232ZM108.012 92V93H108.672L108.931 92.3934L108.012 92ZM109.42 71.264L108.474 70.9394L108.02 72.264H109.42V71.264ZM113.9 58.208V57.208H113.186L112.954 57.8834L113.9 58.208ZM162.284 58.208L163.23 57.8834L162.998 57.208H162.284V58.208ZM166.764 71.264V72.264H168.164L167.71 70.9394L166.764 71.264ZM91.7719 92.4104L132.092 2.81036L130.268 1.98963L89.9481 91.5896L91.7719 92.4104ZM131.18 3.39999H147.564V1.39999H131.18V3.39999ZM146.653 2.81144L187.101 92.4114L188.923 91.5886L148.475 1.98855L146.653 2.81144ZM188.012 91H170.604V93H188.012V91ZM171.523 91.6054L136.835 10.8374L134.997 11.6266L169.685 92.3946L171.523 91.6054ZM135.916 12.232H142.572V10.232H135.916V12.232ZM141.653 10.8386L107.093 91.6066L108.931 92.3934L143.491 11.6254L141.653 10.8386ZM108.012 91H90.86V93H108.012V91ZM110.366 71.5886L114.846 58.5326L112.954 57.8834L108.474 70.9394L110.366 71.5886ZM113.9 59.208H162.284V57.208H113.9V59.208ZM161.338 58.5326L165.818 71.5886L167.71 70.9394L163.23 57.8834L161.338 58.5326ZM166.764 70.264H109.42V72.264H166.764V70.264ZM214.255 70.88L213.256 70.9254L213.361 73.226L214.97 71.5789L214.255 70.88ZM213.359 51.168L212.639 50.4743L212.341 50.7839L212.36 51.2134L213.359 51.168ZM260.335 2.39999V1.39999H259.91L259.615 1.70624L260.335 2.39999ZM279.023 2.39999L279.751 3.08543L281.338 1.39999H279.023V2.39999ZM239.983 43.872L239.255 43.1866L239.249 43.1924L239.244 43.1984L239.983 43.872ZM230.767 53.984L231.482 54.6829L231.494 54.6705L231.506 54.6576L230.767 53.984ZM199.407 92H198.407V93H199.407V92ZM199.407 2.39999V1.39999H198.407V2.39999H199.407ZM216.047 2.39999H217.047V1.39999H216.047V2.39999ZM216.047 92V93H217.047V92H216.047ZM261.871 92L261.105 92.6432L261.405 93H261.871V92ZM227.567 51.168L226.826 50.4969L226.24 51.1435L226.801 51.8112L227.567 51.168ZM238.575 39.008L239.353 38.3801L238.619 37.4696L237.834 38.3369L238.575 39.008ZM281.327 92V93H283.419L282.105 91.3721L281.327 92ZM215.254 70.8346L214.358 51.1226L212.36 51.2134L213.256 70.9254L215.254 70.8346ZM214.079 51.8617L261.055 3.09375L259.615 1.70624L212.639 50.4743L214.079 51.8617ZM260.335 3.39999H279.023V1.39999H260.335V3.39999ZM278.295 1.71456L239.255 43.1866L240.711 44.5574L279.751 3.08543L278.295 1.71456ZM239.244 43.1984L230.028 53.3104L231.506 54.6576L240.722 44.5456L239.244 43.1984ZM230.052 53.2851L213.54 70.1811L214.97 71.5789L231.482 54.6829L230.052 53.2851ZM200.407 92V2.39999H198.407V92H200.407ZM199.407 3.39999H216.047V1.39999H199.407V3.39999ZM215.047 2.39999V92H217.047V2.39999H215.047ZM216.047 91H199.407V93H216.047V91ZM262.637 91.3568L228.333 50.5247L226.801 51.8112L261.105 92.6432L262.637 91.3568ZM228.308 51.8391L239.316 39.6791L237.834 38.3369L226.826 50.4969L228.308 51.8391ZM237.797 39.6359L280.549 92.6279L282.105 91.3721L239.353 38.3801L237.797 39.6359ZM281.327 91H261.871V93H281.327V91ZM276.11 92L275.198 91.5896L274.563 93H276.11V92ZM316.43 2.39999V1.39999H315.783L315.518 1.98963L316.43 2.39999ZM332.814 2.39999L333.725 1.98855L333.46 1.39999H332.814V2.39999ZM373.262 92V93H374.811L374.173 91.5886L373.262 92ZM355.854 92L354.935 92.3946L355.195 93H355.854V92ZM321.166 11.232V10.232H319.648L320.247 11.6266L321.166 11.232ZM327.822 11.232L328.741 11.6254L329.338 10.232H327.822V11.232ZM293.262 92V93H293.922L294.181 92.3934L293.262 92ZM294.67 71.264L293.724 70.9394L293.27 72.264H294.67V71.264ZM299.15 58.208V57.208H298.436L298.204 57.8834L299.15 58.208ZM347.534 58.208L348.48 57.8834L348.248 57.208H347.534V58.208ZM352.014 71.264V72.264H353.414L352.96 70.9394L352.014 71.264ZM277.022 92.4104L317.342 2.81036L315.518 1.98963L275.198 91.5896L277.022 92.4104ZM316.43 3.39999H332.814V1.39999H316.43V3.39999ZM331.903 2.81144L372.351 92.4114L374.173 91.5886L333.725 1.98855L331.903 2.81144ZM373.262 91H355.854V93H373.262V91ZM356.773 91.6054L322.085 10.8374L320.247 11.6266L354.935 92.3946L356.773 91.6054ZM321.166 12.232H327.822V10.232H321.166V12.232ZM326.903 10.8386L292.343 91.6066L294.181 92.3934L328.741 11.6254L326.903 10.8386ZM293.262 91H276.11V93H293.262V91ZM295.616 71.5886L300.096 58.5326L298.204 57.8834L293.724 70.9394L295.616 71.5886ZM299.15 59.208H347.534V57.208H299.15V59.208ZM346.588 58.5326L351.068 71.5886L352.96 70.9394L348.48 57.8834L346.588 58.5326ZM352.014 70.264H294.67V72.264H352.014V70.264ZM384.657 92H383.657V93H384.657V92ZM384.657 2.39999V1.39999H383.657V2.39999H384.657ZM398.353 2.39999L399.128 1.76848L398.828 1.39999H398.353V2.39999ZM454.545 71.392V72.392H456.649L455.32 70.7605L454.545 71.392ZM447.761 71.392H446.761V72.392H447.761V71.392ZM447.761 2.39999V1.39999H446.761V2.39999H447.761ZM464.273 2.39999H465.273V1.39999H464.273V2.39999ZM464.273 92V93H465.273V92H464.273ZM450.577 92L449.802 92.6315L450.102 93H450.577V92ZM394.385 23.008V22.008H392.281L393.61 23.6395L394.385 23.008ZM401.169 23.008H402.169V22.008H401.169V23.008ZM401.169 92V93H402.169V92H401.169ZM385.657 92V2.39999H383.657V92H385.657ZM384.657 3.39999H398.353V1.39999H384.657V3.39999ZM397.578 3.03151L453.77 72.0235L455.32 70.7605L399.128 1.76848L397.578 3.03151ZM454.545 70.392H447.761V72.392H454.545V70.392ZM448.761 71.392V2.39999H446.761V71.392H448.761ZM447.761 3.39999H464.273V1.39999H447.761V3.39999ZM463.273 2.39999V92H465.273V2.39999H463.273ZM464.273 91H450.577V93H464.273V91ZM451.352 91.3685L395.16 22.3765L393.61 23.6395L449.802 92.6315L451.352 91.3685ZM394.385 24.008H401.169V22.008H394.385V24.008ZM400.169 23.008V92H402.169V23.008H400.169ZM401.169 91H384.657V93H401.169V91ZM495.962 90.336L495.657 91.2885L495.669 91.2921L495.962 90.336ZM480.73 82.528L479.817 82.121L479.51 82.8088L480.086 83.2934L480.73 82.528ZM486.49 69.6L487.108 68.8137L486.099 68.0209L485.577 69.193L486.49 69.6ZM499.802 76.64L500.136 75.6976L499.802 76.64ZM527.45 77.92L527.117 76.977V76.977L527.45 77.92ZM533.85 73.824L534.631 74.4487L534.638 74.4395L534.645 74.43L533.85 73.824ZM532.954 61.28L532.298 62.0346L532.307 62.0429L532.317 62.051L532.954 61.28ZM525.274 57.312L524.958 58.2607L524.973 58.2659L524.989 58.2705L525.274 57.312ZM514.906 54.496L514.684 55.4711L514.689 55.4722L514.906 54.496ZM503.514 51.552L503.211 52.5049L503.224 52.509L503.236 52.5127L503.514 51.552ZM493.146 47.072L492.625 47.9253L492.638 47.9337L492.652 47.9417L493.146 47.072ZM485.594 39.648L484.751 40.1864L485.594 39.648ZM486.49 14.56L485.65 14.0175L485.647 14.022L486.49 14.56ZM498.394 4.83199L498.806 5.74339L498.812 5.74038L498.394 4.83199ZM534.746 3.168L534.496 4.13628H534.496L534.746 3.168ZM548.57 9.056L549.497 9.43213L549.807 8.66856L549.116 8.21839L548.57 9.056ZM543.322 21.984L542.81 22.8431L543.811 23.4391L544.249 22.3601L543.322 21.984ZM530.906 16.736L530.636 17.699L530.645 17.7015L530.654 17.7038L530.906 16.736ZM507.354 16.608L506.997 15.6739L506.987 15.6776L507.354 16.608ZM501.082 20.96L500.287 20.354L500.277 20.3662L500.268 20.3788L501.082 20.96ZM501.978 33.76L501.305 34.4999L501.323 34.5159L501.341 34.531L501.978 33.76ZM509.53 37.6L509.238 38.5564L509.245 38.5585L509.53 37.6ZM520.026 40.416L519.789 41.3874L519.799 41.3899L519.809 41.3922L520.026 40.416ZM531.418 43.36L531.135 44.319L531.14 44.3207L531.418 43.36ZM541.786 47.712L541.282 48.5758L541.292 48.5817L541.786 47.712ZM549.338 55.008L548.485 55.5294L548.49 55.538L548.495 55.5464L549.338 55.008ZM548.314 79.968L547.474 79.4255L547.471 79.43L548.314 79.968ZM536.41 89.696L536.816 90.6099L536.828 90.6044L536.41 89.696ZM516.058 92.28C509.156 92.28 502.556 91.3122 496.255 89.3799L495.669 91.2921C502.168 93.2852 508.966 94.28 516.058 94.28V92.28ZM496.267 89.3836C489.948 87.3615 484.999 84.8113 481.374 81.7626L480.086 83.2934C483.97 86.5593 489.176 89.2145 495.657 91.2884L496.267 89.3836ZM481.643 82.935L487.403 70.007L485.577 69.193L479.817 82.121L481.643 82.935ZM485.872 70.3863C489.559 73.2829 494.097 75.6769 499.468 77.5824L500.136 75.6976C494.925 73.8485 490.589 71.5491 487.108 68.8137L485.872 70.3863ZM499.468 77.5824C504.864 79.4974 510.396 80.456 516.058 80.456V78.456C510.627 78.456 505.321 77.5373 500.136 75.6976L499.468 77.5824ZM516.058 80.456C520.812 80.456 524.734 79.9391 527.783 78.863L527.117 76.977C524.363 77.9489 520.691 78.456 516.058 78.456V80.456ZM527.783 78.863C530.792 77.801 533.111 76.3491 534.631 74.4487L533.069 73.1993C531.859 74.7122 529.911 75.991 527.117 76.977L527.783 78.863ZM534.645 74.43C536.141 72.4668 536.898 70.2492 536.898 67.808H534.898C534.898 69.8041 534.289 71.5972 533.055 73.218L534.645 74.43ZM536.898 67.808C536.898 64.8038 535.802 62.3356 533.591 60.509L532.317 62.051C534.031 63.4671 534.898 65.3509 534.898 67.808H536.898ZM533.61 60.5254C531.515 58.7036 528.818 57.3223 525.559 56.3535L524.989 58.2705C528.045 59.179 530.468 60.4431 532.298 62.0346L533.61 60.5254ZM525.59 56.3633C522.48 55.3264 518.99 54.3791 515.123 53.5198L514.689 55.4722C518.502 56.3196 521.924 57.2496 524.958 58.2607L525.59 56.3633ZM515.128 53.5209C511.392 52.672 507.614 51.6955 503.792 50.5913L503.236 52.5127C507.094 53.6272 510.91 54.6134 514.684 55.4711L515.128 53.5209ZM503.817 50.5991C500.123 49.4237 496.732 47.9573 493.64 46.2023L492.652 47.9417C495.875 49.7707 499.396 51.291 503.211 52.5049L503.817 50.5991ZM493.667 46.2187C490.727 44.4216 488.319 42.0553 486.437 39.1096L484.751 40.1864C486.795 43.3847 489.421 45.9677 492.625 47.9253L493.667 46.2187ZM486.437 39.1096C484.604 36.2413 483.65 32.5181 483.65 27.872H481.65C481.65 32.7832 482.659 36.9107 484.751 40.1864L486.437 39.1096ZM483.65 27.872C483.65 23.1942 484.878 18.9443 487.333 15.098L485.647 14.022C482.982 18.1971 481.65 22.8218 481.65 27.872H483.65ZM487.33 15.1025C489.853 11.1967 493.656 8.06882 498.806 5.74336L497.982 3.92062C492.55 6.37383 488.418 9.73124 485.65 14.0175L487.33 15.1025ZM498.812 5.74038C504.017 3.34459 510.646 2.12 518.746 2.12V0.119995C510.462 0.119995 503.523 1.37007 497.976 3.92361L498.812 5.74038ZM518.746 2.12C524.036 2.12 529.286 2.79166 534.496 4.13628L534.996 2.19972C529.625 0.813671 524.208 0.119995 518.746 0.119995V2.12ZM534.496 4.13628C539.699 5.47886 544.203 7.40191 548.024 9.89361L549.116 8.21839C545.086 5.59009 540.375 3.5878 534.996 2.19972L534.496 4.13628ZM547.643 8.67987L542.395 21.6079L544.249 22.3601L549.497 9.43213L547.643 8.67987ZM543.834 21.1249C539.747 18.6901 535.521 16.9026 531.158 15.7682L530.654 17.7038C534.824 18.788 538.876 20.4993 542.81 22.8431L543.834 21.1249ZM531.176 15.773C526.832 14.5569 522.645 13.944 518.618 13.944V15.944C522.441 15.944 526.446 16.5258 530.636 17.699L531.176 15.773ZM518.618 13.944C513.941 13.944 510.053 14.5053 506.997 15.6739L507.711 17.542C510.457 16.492 514.079 15.944 518.618 15.944V13.944ZM506.987 15.6776C504.058 16.8316 501.794 18.375 500.287 20.354L501.877 21.566C503.1 19.961 505.018 18.6031 507.721 17.5384L506.987 15.6776ZM500.268 20.3788C498.861 22.3485 498.162 24.6018 498.162 27.104H500.162C500.162 24.9982 500.743 23.1555 501.896 21.5412L500.268 20.3788ZM498.162 27.104C498.162 30.0923 499.202 32.5881 501.305 34.4999L502.651 33.0201C500.999 31.5186 500.162 29.577 500.162 27.104H498.162ZM501.341 34.531C503.428 36.255 506.072 37.5889 509.238 38.5564L509.822 36.6436C506.844 35.7338 504.453 34.5076 502.615 32.989L501.341 34.531ZM509.245 38.5585C512.421 39.5027 515.936 40.4456 519.789 41.3874L520.263 39.4446C516.436 38.5091 512.954 37.5746 509.815 36.6415L509.245 38.5585ZM519.809 41.3922C523.627 42.2406 527.402 43.2162 531.135 44.319L531.701 42.401C527.925 41.2851 524.105 40.2981 520.243 39.4398L519.809 41.3922ZM531.14 44.3207C534.911 45.41 538.289 46.83 541.282 48.5758L542.29 46.8482C539.139 45.0099 535.605 43.5287 531.696 42.3993L531.14 44.3207ZM541.292 48.5817C544.304 50.2907 546.697 52.6034 548.485 55.5294L550.191 54.4865C548.225 51.2686 545.583 48.7173 542.28 46.8423L541.292 48.5817ZM548.495 55.5464C550.33 58.4174 551.282 62.0993 551.282 66.656H553.282C553.282 61.826 552.272 57.7426 550.181 54.4696L548.495 55.5464ZM551.282 66.656C551.282 71.2381 550.017 75.4877 547.474 79.4255L549.154 80.5105C551.902 76.2563 553.282 71.6312 553.282 66.656H551.282ZM547.471 79.43C545.037 83.2437 541.236 86.3736 535.992 88.7876L536.828 90.6044C542.336 88.0691 546.471 84.7137 549.157 80.506L547.471 79.43ZM536.004 88.7822C530.796 91.097 524.161 92.28 516.058 92.28V94.28C524.339 94.28 531.273 93.0737 536.816 90.6098L536.004 88.7822ZM568.782 92H567.782V93H568.782V92ZM568.782 2.39999V1.39999H567.782V2.39999H568.782ZM585.422 2.39999H586.422V1.39999H585.422V2.39999ZM585.422 92V93H586.422V92H585.422ZM569.782 92V2.39999H567.782V92H569.782ZM568.782 3.39999H585.422V1.39999H568.782V3.39999ZM584.422 2.39999V92H586.422V2.39999H584.422ZM585.422 91H568.782V93H585.422V91ZM631.673 92H630.673V93H631.673V92ZM631.673 56.544L632.613 56.2032L630.673 56.544H631.673ZM635.385 66.784L634.529 67.3012L636.325 66.4432L635.385 66.784ZM596.473 2.39999V1.39999H594.7L595.617 2.91724L596.473 2.39999ZM614.265 2.39999L615.122 1.88395L614.83 1.39999H614.265V2.39999ZM645.497 54.24V55.24H647.267L646.354 53.7239L645.497 54.24ZM635.513 54.24L634.658 53.7209L633.736 55.24H635.513V54.24ZM667.001 2.39999V1.39999H666.438L666.146 1.88085L667.001 2.39999ZM683.385 2.39999L684.241 2.91724L685.158 1.39999H683.385V2.39999ZM644.473 66.784L643.537 66.4329L645.329 67.3012L644.473 66.784ZM648.313 56.544H649.313L647.377 56.1929L648.313 56.544ZM648.313 92V93H649.313V92H648.313ZM632.673 92V56.544H630.673V92H632.673ZM630.733 56.8848L634.445 67.1248L636.325 66.4432L632.613 56.2032L630.733 56.8848ZM636.241 66.2668L597.329 1.88275L595.617 2.91724L634.529 67.3012L636.241 66.2668ZM596.473 3.39999H614.265V1.39999H596.473V3.39999ZM613.408 2.91604L644.64 54.7561L646.354 53.7239L615.122 1.88395L613.408 2.91604ZM645.497 53.24H635.513V55.24H645.497V53.24ZM636.368 54.7591L667.856 2.91914L666.146 1.88085L634.658 53.7209L636.368 54.7591ZM667.001 3.39999H683.385V1.39999H667.001V3.39999ZM682.529 1.88275L643.617 66.2668L645.329 67.3012L684.241 2.91724L682.529 1.88275ZM645.409 67.1351L649.249 56.8951L647.377 56.1929L643.537 66.4329L645.409 67.1351ZM647.313 56.544V92H649.313V56.544H647.313ZM648.313 91H631.673V93H648.313V91ZM676.235 92L675.323 91.5896L674.688 93H676.235V92ZM716.555 2.39999V1.39999H715.908L715.643 1.98963L716.555 2.39999ZM732.939 2.39999L733.85 1.98855L733.585 1.39999H732.939V2.39999ZM773.387 92V93H774.936L774.298 91.5886L773.387 92ZM755.979 92L755.06 92.3946L755.32 93H755.979V92ZM721.291 11.232V10.232H719.773L720.372 11.6266L721.291 11.232ZM727.947 11.232L728.866 11.6254L729.463 10.232H727.947V11.232ZM693.387 92V93H694.047L694.306 92.3934L693.387 92ZM694.795 71.264L693.849 70.9394L693.395 72.264H694.795V71.264ZM699.275 58.208V57.208H698.561L698.329 57.8834L699.275 58.208ZM747.659 58.208L748.605 57.8834L748.373 57.208H747.659V58.208ZM752.139 71.264V72.264H753.539L753.085 70.9394L752.139 71.264ZM677.147 92.4104L717.467 2.81036L715.643 1.98963L675.323 91.5896L677.147 92.4104ZM716.555 3.39999H732.939V1.39999H716.555V3.39999ZM732.028 2.81144L772.476 92.4114L774.298 91.5886L733.85 1.98855L732.028 2.81144ZM773.387 91H755.979V93H773.387V91ZM756.898 91.6054L722.21 10.8374L720.372 11.6266L755.06 92.3946L756.898 91.6054ZM721.291 12.232H727.947V10.232H721.291V12.232ZM727.028 10.8386L692.468 91.6066L694.306 92.3934L728.866 11.6254L727.028 10.8386ZM693.387 91H676.235V93H693.387V91ZM695.741 71.5886L700.221 58.5326L698.329 57.8834L693.849 70.9394L695.741 71.5886ZM699.275 59.208H747.659V57.208H699.275V59.208ZM746.713 58.5326L751.193 71.5886L753.085 70.9394L748.605 57.8834L746.713 58.5326ZM752.139 70.264H694.795V72.264H752.139V70.264Z" fill="white" fill-opacity="0.25" mask="url(#path-1-outside-1_579_3156)"/>
</svg>
